<svg width="60" height="60" viewBox="0 0 60 60" fill="none" xmlns="http://www.w3.org/2000/svg">
<path d="M32.0378 16.3405C32.0378 17.1174 31.8951 17.8176 31.6098 18.441C31.3336 19.0644 30.9377 19.6019 30.4222 20.0536C29.9067 20.5054 29.2853 20.8667 28.558 21.1378C27.8307 21.4088 27.0252 21.5805 26.1414 21.6527L25.8514 24.5528C25.8422 24.6251 25.8192 24.6883 25.7824 24.7425C25.7548 24.7967 25.6949 24.8419 25.6029 24.878C25.52 24.9142 25.4003 24.9413 25.2438 24.9593C25.0965 24.9864 24.9078 25 24.6777 25C24.3831 25 24.1437 24.9864 23.9596 24.9593C23.7847 24.9322 23.6466 24.8916 23.5453 24.8374C23.4441 24.7922 23.375 24.729 23.3382 24.6477C23.3106 24.5663 23.306 24.476 23.3244 24.3766L23.6144 21.6256C23.2185 21.5714 22.8457 21.5037 22.4958 21.4224C22.146 21.332 21.8284 21.2372 21.543 21.1378C21.2576 21.0294 21.0091 20.9209 20.7973 20.8125C20.5948 20.7041 20.4383 20.6002 20.3278 20.5008C20.2266 20.3924 20.1529 20.2388 20.1069 20.0401C20.0609 19.8323 20.0378 19.5296 20.0378 19.1321C20.0378 18.825 20.047 18.572 20.0655 18.3732C20.0839 18.1745 20.1161 18.0209 20.1621 17.9125C20.2082 17.8041 20.2634 17.7318 20.3278 17.6957C20.4015 17.6505 20.4843 17.6279 20.5764 17.6279C20.6961 17.6279 20.871 17.6957 21.1011 17.8312C21.3313 17.9667 21.6259 18.1158 21.9849 18.2784C22.3439 18.441 22.7766 18.5901 23.283 18.7256C23.7985 18.8611 24.4015 18.9289 25.0919 18.9289C26.169 18.9289 26.9699 18.7346 27.4947 18.3461C28.0194 17.9486 28.2818 17.4246 28.2818 16.7741C28.2818 16.3405 28.1667 15.9836 27.9366 15.7036C27.7156 15.4235 27.4164 15.1796 27.039 14.9718C26.6615 14.7549 26.2335 14.5652 25.7548 14.4026C25.2853 14.2309 24.8019 14.0503 24.3048 13.8605C23.8077 13.6708 23.3198 13.4495 22.8411 13.1965C22.3716 12.9435 21.9481 12.6318 21.5706 12.2614C21.1932 11.891 20.8894 11.4438 20.6592 10.9198C20.4383 10.3868 20.3278 9.74534 20.3278 8.99548C20.3278 8.3179 20.4429 7.70356 20.6731 7.15246C20.9032 6.59232 21.2346 6.10446 21.6673 5.68888C22.1 5.27329 22.6293 4.93902 23.2553 4.68605C23.8905 4.42405 24.6086 4.24788 25.4095 4.15754L25.6857 1.43365C25.6949 1.36138 25.7133 1.30265 25.7409 1.25748C25.7778 1.20327 25.8376 1.1581 25.9205 1.12196C26.0125 1.07679 26.1322 1.04517 26.2795 1.0271C26.4268 1.00903 26.6201 1 26.8595 1C27.1449 1 27.3796 1.01355 27.5637 1.04065C27.7571 1.06776 27.9044 1.10841 28.0056 1.16262C28.1069 1.20779 28.1713 1.27103 28.1989 1.35234C28.2266 1.43365 28.2404 1.524 28.2404 1.62338L27.9642 4.18464C28.222 4.22078 28.4935 4.27047 28.7789 4.33371C29.0643 4.39695 29.3313 4.47374 29.5798 4.56409C29.8284 4.6454 30.054 4.73574 30.2565 4.83512C30.459 4.92547 30.5971 5.01129 30.6708 5.0926C30.7536 5.16488 30.8134 5.24167 30.8503 5.32298C30.8963 5.39526 30.9285 5.49012 30.9469 5.60757C30.9746 5.71598 30.993 5.8515 31.0022 6.01412C31.0114 6.1677 31.016 6.34839 31.016 6.55618C31.016 6.83625 31.0068 7.06663 30.9884 7.24732C30.9792 7.42801 30.9561 7.56804 30.9193 7.66742C30.8825 7.75776 30.8411 7.82101 30.795 7.85714C30.749 7.88425 30.6938 7.8978 30.6293 7.8978C30.5096 7.8978 30.3347 7.83907 30.1046 7.72163C29.8744 7.60418 29.5891 7.4777 29.2484 7.34218C28.917 7.20666 28.5304 7.08018 28.0885 6.96273C27.6558 6.84529 27.1771 6.78656 26.6523 6.78656C26.1736 6.78656 25.764 6.83173 25.4233 6.92208C25.0827 7.01242 24.8065 7.1389 24.5948 7.30152C24.3831 7.46414 24.2266 7.65839 24.1253 7.88425C24.024 8.11011 23.9734 8.35855 23.9734 8.62959C23.9734 9.05421 24.0885 9.41107 24.3186 9.70017C24.5488 9.98927 24.8526 10.2377 25.23 10.4455C25.6167 10.6533 26.0493 10.843 26.5281 11.0147C27.016 11.1863 27.5085 11.367 28.0056 11.5567C28.512 11.7465 29.0045 11.9678 29.4832 12.2208C29.9711 12.4647 30.4038 12.7719 30.7812 13.1423C31.1587 13.5037 31.4625 13.9464 31.6926 14.4704C31.9228 14.9853 32.0378 15.6087 32.0378 16.3405Z" fill="#404040"/>
<path d="M47.2093 19.8967L48.5873 18.5493L53 22.962V50.9998C53 52.6567 51.6569 53.9998 50 53.9998C48.3431 53.9998 47 52.6567 47 50.9998V20.9998C47 20.6103 47.0742 20.2382 47.2093 19.8967Z" fill="#404040"/>
<path d="M39 27.9236L45 22.0569V50.9998C45 52.6567 43.6569 53.9998 42 53.9998C40.3431 53.9998 39 52.6567 39 50.9998V27.9236Z" fill="#404040"/>
<path d="M31 35.7458L37 29.8792V50.9998C37 52.6567 35.6569 53.9998 34 53.9998C32.3431 53.9998 31 52.6567 31 50.9998V35.7458Z" fill="#404040"/>
<path d="M23 37.6828L26.0529 40.583L29 37.7014V50.9998C29 52.6567 27.6569 53.9998 26 53.9998C24.3431 53.9998 23 52.6567 23 50.9998V37.6828Z" fill="#404040"/>
<path d="M15 32.072L16.0424 31.0731L21 35.7828V50.9998C21 52.6567 19.6569 53.9998 18 53.9998C16.3431 53.9998 15 52.6567 15 50.9998V32.072Z" fill="#404040"/>
<path d="M7 39.7387V50.9998C7 52.6567 8.34315 53.9998 10 53.9998C11.6569 53.9998 13 52.6567 13 50.9998V33.9887L7 39.7387Z" fill="#404040"/>
<path d="M53.0378 9H42.0378L53.0378 20V9Z" fill="#CAA04A"/>
<path d="M26.0529 37.5832L49.5865 14.5725L47.4892 12.4275L26.0229 33.4168L16.0333 23.9267L7 32.5837V36.7389L16.0424 28.0733L26.0529 37.5832Z" fill="#CAA04A"/>
</svg>
