<svg width="60" height="60" viewBox="0 0 60 60" fill="none" xmlns="http://www.w3.org/2000/svg">
<g clip-path="url(#clip0)">
<path fill-rule="evenodd" clip-rule="evenodd" d="M13 7L13 51H46.5V16.1598L38.1729 7H13ZM39.5 4H13C11.3431 4 10 5.34315 10 7V51C10 52.6569 11.3431 54 13 54H46.5C48.1569 54 49.5 52.6569 49.5 51V15L39.5 4Z" fill="#404040"/>
<path d="M38 13.5V6.5L48 16.5H41C39.3431 16.5 38 15.1569 38 13.5Z" fill="#404040"/>
<rect x="16" y="13.5" width="19" height="6" rx="3" fill="#404040"/>
<rect x="16" y="26.5" width="25" height="6" rx="3" fill="#404040"/>
<rect x="16" y="38.5" width="19" height="6" rx="3" fill="#404040"/>
<path d="M21.5 60L24.5 50L54 20.5L62.5 28.5L27 65L21.5 60Z" fill="#F2F2F2"/>
<rect x="48.2484" y="29.8875" width="7" height="28.2073" transform="rotate(44.789 48.2484 29.8875)" fill="#404040"/>
<rect x="54.5889" y="23.5" width="7" height="7" transform="rotate(44.789 54.5889 23.5)" fill="#C59533"/>
<path d="M31.5 57L26.5 51.5L24 59.5L31.5 57Z" fill="#C59533"/>
</g>
<defs>
<clipPath id="clip0">
<rect width="60" height="60" fill="white"/>
</clipPath>
</defs>
</svg>
