<svg width="24" height="24" viewBox="0 0 24 24" fill="none" xmlns="http://www.w3.org/2000/svg">
<circle cx="12" cy="12" r="12" fill="#007CC2"/>
<path d="M16.7812 8.0612C16.8333 8.00911 16.8854 7.95703 16.9896 7.95703C17.0677 7.95703 17.1458 8.00911 17.1979 8.0612L17.5104 8.34766C17.5625 8.42578 17.5885 8.50391 17.5885 8.58203C17.5885 8.6862 17.5625 8.73828 17.5104 8.79036L9.69792 16.6029C9.61979 16.681 9.54167 16.707 9.46354 16.707C9.38542 16.707 9.30729 16.681 9.25521 16.6029L6.15625 13.5039C6.10417 13.4518 6.07812 13.3997 6.07812 13.2956C6.07812 13.2174 6.10417 13.1393 6.15625 13.0612L6.46875 12.7747C6.52083 12.7227 6.57292 12.6706 6.67708 12.6706C6.75521 12.6706 6.83333 12.7227 6.88542 12.7747L9.46354 15.3529L16.7812 8.0612Z" fill="white"/>
</svg>
