<svg width="38" height="48" viewBox="0 0 38 48" fill="none" xmlns="http://www.w3.org/2000/svg">
<path d="M3 28H14V32H12C11.4 32 11 32.4 11 33C11 33.6 11.4 34 12 34H26C26.6 34 27 33.6 27 33C27 32.4 26.6 32 26 32H24V28H35C36.1 28 37 27.1 37 26V2C37 0.9 36.1 0 35 0H3C1.9 0 1 0.9 1 2V26C1 27.1 1.9 28 3 28ZM22 32H16V28H22V32ZM3 2H35V26H3V2Z" fill="#022444"/>
<path d="M16.7 15H19.7L17.3 20.6C17.1 21.1 17.3 21.7 17.8 21.9C17.9 22 18.1 22 18.2 22C18.6 22 19 21.8 19.1 21.4L22.1 14.4C22.2 14.1 22.2 13.7 22 13.5C21.8 13.2 21.5 13 21.2 13H18.2L20.8 7.4C21 6.9 20.8 6.3 20.3 6.1C19.8 5.9 19.2 6.1 19 6.6L15.8 13.6C15.7 13.9 15.7 14.3 15.9 14.6C16 14.8 16.3 15 16.7 15Z" fill="#022444"/>
<path d="M37 43H22.9C22.5 41.6 21.4 40.5 20 40.1V37C20 36.4 19.6 36 19 36C18.4 36 18 36.4 18 37V40.1C16.6 40.5 15.5 41.6 15.1 43H1C0.4 43 0 43.4 0 44C0 44.6 0.4 45 1 45H15.1C15.5 46.7 17.1 48 19 48C20.9 48 22.4 46.7 22.9 45H37C37.6 45 38 44.6 38 44C38 43.4 37.6 43 37 43ZM19 46C17.9 46 17 45.1 17 44C17 42.9 17.9 42 19 42C20.1 42 21 42.9 21 44C21 45.1 20.1 46 19 46Z" fill="#022444"/>
</svg>
