<svg width="48" height="48" viewBox="0 0 48 48" fill="none" xmlns="http://www.w3.org/2000/svg">
<path d="M46 31H45C45 26.6 41.4 23 37 23C32.6 23 29 26.6 29 31H28C26.9 31 26 31.9 26 33V43C26 45.8 28.2 48 31 48H43C45.8 48 48 45.8 48 43V33C48 31.9 47.1 31 46 31ZM37 25C40.3 25 43 27.7 43 31H31C31 27.7 33.7 25 37 25ZM46 43C46 44.7 44.7 46 43 46H31C29.3 46 28 44.7 28 43V33H46V43Z" fill="#022444"/>
<path d="M37 35C35.3 35 34 36.3 34 38C34 39.3 34.8 40.4 36 40.8V43C36 43.6 36.4 44 37 44C37.6 44 38 43.6 38 43V40.8C39.2 40.4 40 39.3 40 38C40 36.3 38.7 35 37 35ZM37 39C36.4 39 36 38.6 36 38C36 37.4 36.4 37 37 37C37.6 37 38 37.4 38 38C38 38.6 37.6 39 37 39Z" fill="#022444"/>
<path d="M19 23C28.4 23 38 20.9 38 17V6C38 2.1 28.4 0 19 0C9.6 0 0 2.1 0 6V17C0 20.9 9.6 23 19 23ZM19 21C8 21 2 18.4 2 17V8.8C5.3 10.9 12.2 12 19 12C25.8 12 32.7 10.9 36 8.8V17C36 18.4 30 21 19 21ZM19 2C30 2 36 4.6 36 6C36 7.4 30 10 19 10C8 10 2 7.4 2 6C2 4.6 8 2 19 2Z" fill="#022444"/>
<path d="M20.8 34C20.2 34 19.6 34 19 34C8 34 2 31.4 2 30V22C2 21.4 1.6 21 1 21C0.4 21 0 21.4 0 22V30C0 33.9 9.6 36 19 36C19.6 36 20.3 36 20.9 36C21.5 36 21.9 35.5 21.9 35C21.9 34.4 21.4 34 20.8 34Z" fill="#022444"/>
<path d="M20.8 46C20.2 46 19.6 46 19 46C8 46 2 43.4 2 42V35C2 34.4 1.6 34 1 34C0.4 34 0 34.4 0 35V42C0 45.9 9.6 48 19 48C19.6 48 20.3 48 20.9 48C21.5 48 21.9 47.5 21.9 47C21.9 46.4 21.4 45.9 20.8 46Z" fill="#022444"/>
<path d="M6 16C6.55228 16 7 15.5523 7 15C7 14.4477 6.55228 14 6 14C5.44772 14 5 14.4477 5 15C5 15.5523 5.44772 16 6 16Z" fill="#022444"/>
<path d="M6 41C6.55228 41 7 40.5523 7 40C7 39.4477 6.55228 39 6 39C5.44772 39 5 39.4477 5 40C5 40.5523 5.44772 41 6 41Z" fill="#022444"/>
<path d="M6 28C6.55228 28 7 27.5523 7 27C7 26.4477 6.55228 26 6 26C5.44772 26 5 26.4477 5 27C5 27.5523 5.44772 28 6 28Z" fill="#022444"/>
</svg>
