<svg width="48" height="40" viewBox="0 0 48 40" fill="none" xmlns="http://www.w3.org/2000/svg">
<path d="M13 11V21C13 23.8 15.2 26 18 26H30C32.8 26 35 23.8 35 21V11C35 9.9 34.1 9 33 9H32V8C32 3.6 28.4 0 24 0C19.6 0 16 3.6 16 8V9H15C13.9 9 13 9.9 13 11ZM18 8C18 4.7 20.7 2 24 2C27.3 2 30 4.7 30 8V9H18V8ZM15 11H33V21C33 22.7 31.7 24 30 24H18C16.3 24 15 22.7 15 21V11Z" fill="#022444"/>
<path d="M23 18.8V21C23 21.6 23.4 22 24 22C24.6 22 25 21.6 25 21V18.8C26.2 18.4 27 17.3 27 16C27 14.3 25.7 13 24 13C22.3 13 21 14.3 21 16C21 17.3 21.8 18.4 23 18.8ZM24 15C24.6 15 25 15.4 25 16C25 16.6 24.6 17 24 17C23.4 17 23 16.6 23 16C23 15.4 23.4 15 24 15Z" fill="#022444"/>
<path d="M17 34C16.4 34 16 34.4 16 35C16 35.6 16.4 36 17 36H31C31.6 36 32 35.6 32 35C32 34.4 31.6 34 31 34H17Z" fill="#022444"/>
<path d="M47 31H45V7C45 5.3 43.7 4 42 4H35C34.4 4 34 4.4 34 5C34 5.6 34.4 6 35 6H42C42.6 6 43 6.4 43 7V31H34C33.4 31 33 31.4 33 32C33 32.6 33.4 33 34 33H45.9C45.5 35.3 43.7 38 42 38H6C4.3 38 2.5 35.3 2.1 33H14C14.6 33 15 32.6 15 32C15 31.4 14.6 31 14 31H5V7C5 6.4 5.4 6 6 6H13C13.6 6 14 5.6 14 5C14 4.4 13.6 4 13 4H6C4.3 4 3 5.3 3 7V31H1C0.4 31 0 31.4 0 32C0 35.2 2.5 40 6 40H42C45.5 40 48 35.2 48 32C48 31.4 47.6 31 47 31Z" fill="#022444"/>
</svg>
