<svg width="40" height="49" viewBox="0 0 40 49" fill="none" xmlns="http://www.w3.org/2000/svg">
<path d="M37.1 5.675C28.7 5.275 23.9 2.375 21.9 0.675C20.8 -0.225 19.3 -0.225 18.1 0.675C16 2.375 11.3 5.275 2.9 5.675C1.3 5.775 0 7.075 0 8.775V29.875C0 37.275 12.2 45.475 19 47.875C19.3 47.975 19.6 48.075 20 48.075C20.3 48.075 20.7 47.975 21 47.875C27.8 45.375 40 37.275 40 29.875V8.775C40 7.075 38.7 5.775 37.1 5.675ZM38 29.875C38 35.775 27.3 43.475 20.3 45.975C20.1 46.075 19.9 46.075 19.7 45.975C12.7 43.475 2 35.775 2 29.875V8.775C2 8.175 2.4 7.775 3 7.775C12 7.375 17.2 4.175 19.4 2.375C19.8 2.075 20.3 2.075 20.6 2.375C22.9 4.175 28 7.375 37 7.775C37.5 7.775 38 8.275 38 8.775V29.875Z" fill="#022444"/>
<path d="M30.7 21.475C30.2 21.575 29.8 22.075 29.9 22.575C30 23.075 30 23.575 30 24.075C30 29.575 25.5 34.075 20 34.075C14.5 34.075 10 29.575 10 24.075C10 18.575 14.5 14.075 20 14.075C22 14.075 23.8 14.675 25.5 15.675C26 15.975 26.6 15.875 26.9 15.375C27.2 14.875 27.1 14.275 26.6 13.975C24.6 12.675 22.4 11.975 20 11.975C13.4 11.975 8 17.375 8 23.975C8 30.575 13.4 35.975 20 35.975C26.6 35.975 32 30.575 32 23.975C32 23.375 32 22.875 31.9 22.275C31.8 21.775 31.3 21.475 30.7 21.475Z" fill="#022444"/>
<path d="M14.7 21.375C14.3 20.975 13.7 20.975 13.3 21.375C12.9 21.775 12.9 22.375 13.3 22.775L18.8 28.275C19 28.475 19.3 28.575 19.5 28.575C19.7 28.575 20 28.475 20.2 28.275L31.2 17.275C31.6 16.875 31.6 16.275 31.2 15.875C30.8 15.475 30.2 15.475 29.8 15.875L19.5 26.175L14.7 21.375Z" fill="#022444"/>
</svg>
